<?xml version="1.0" encoding="UTF-8" standalone="no"?>
<!-- Created with Inkscape (http://www.inkscape.org/) -->

<svg
   xmlns:dc="http://purl.org/dc/elements/1.1/"
   xmlns:cc="http://creativecommons.org/ns#"
   xmlns:rdf="http://www.w3.org/1999/02/22-rdf-syntax-ns#"
   xmlns:svg="http://www.w3.org/2000/svg"
   xmlns="http://www.w3.org/2000/svg"
   xmlns:sodipodi="http://sodipodi.sourceforge.net/DTD/sodipodi-0.dtd"
   xmlns:inkscape="http://www.inkscape.org/namespaces/inkscape"
   width="210mm"
   height="297mm"
   viewBox="0 0 210 297"
   version="1.1"
   id="svg2785"
   inkscape:version="0.92.2 2405546, 2018-03-11"
   sodipodi:docname="LightSwitch.svg">
  <defs
     id="defs2779" />
  <sodipodi:namedview
     id="base"
     pagecolor="#ffffff"
     bordercolor="#666666"
     borderopacity="1.0"
     inkscape:pageopacity="0.0"
     inkscape:pageshadow="2"
     inkscape:zoom="1.6700175"
     inkscape:cx="462.60965"
     inkscape:cy="544.90266"
     inkscape:document-units="mm"
     inkscape:current-layer="layer1"
     showgrid="false"
     inkscape:window-width="1440"
     inkscape:window-height="900"
     inkscape:window-x="0"
     inkscape:window-y="0"
     inkscape:window-maximized="0" />
  <metadata
     id="metadata2782">
    <rdf:RDF>
      <cc:Work
         rdf:about="">
        <dc:format>image/svg+xml</dc:format>
        <dc:type
           rdf:resource="http://purl.org/dc/dcmitype/StillImage" />
        <dc:title></dc:title>
      </cc:Work>
    </rdf:RDF>
  </metadata>
  <g
     inkscape:label="Layer 1"
     inkscape:groupmode="layer"
     id="layer1">
    <path
       style="opacity:1;fill:none;fill-opacity:0.81176471;stroke:#000000;stroke-width:0.09999999;stroke-miterlimit:4;stroke-dasharray:none;stroke-dashoffset:0;stroke-opacity:0.98591548"
       d="m 67,108.5 h 76 c 1.108,0 2,0.892 2,2 v 76 c 0,1.108 -0.892,2 -2,2 H 67 c -1.108,0 -2,-0.892 -2,-2 v -76 c 0,-1.108 0.892,-2 2,-2 z"
       id="rect3330" />
    <path
       style="opacity:1;fill:none;fill-opacity:0.81176471;stroke:#000000;stroke-width:0.09999999;stroke-miterlimit:4;stroke-dasharray:none;stroke-dashoffset:0;stroke-opacity:0.98591548"
       d="M 95.547503,132.55 H 114.4525 c 0.27562,0 0.4975,0.35569 0.4975,0.7975 v 30.305 c 0,0.44182 -0.22188,0.7975 -0.4975,0.7975 H 95.547503 c -0.275615,0 -0.4975,-0.35568 -0.4975,-0.7975 v -30.305 c 0,-0.44181 0.221885,-0.7975 0.4975,-0.7975 z"
       id="rect3330-3" />
    <g
       id="g3368">
      <path
         style="opacity:1;fill:none;fill-opacity:0.81176471;stroke:#000000;stroke-width:0.1;stroke-miterlimit:4;stroke-dasharray:none;stroke-dashoffset:0;stroke-opacity:0.98591548"
         d="M 78.75,148.5 A 3.75,3.75 0 0 1 75,152.25 3.75,3.75 0 0 1 71.25,148.5 3.75,3.75 0 0 1 75,144.75 3.75,3.75 0 0 1 78.75,148.5 Z"
         id="path3347" />
      <path
         style="opacity:1;fill:none;fill-opacity:0.81176471;stroke:#000000;stroke-width:0.1;stroke-miterlimit:4;stroke-dasharray:none;stroke-dashoffset:0;stroke-opacity:0.98591548"
         d="m 138.75,148.5 a 3.75,3.75 0 0 1 -3.75,3.75 3.75,3.75 0 0 1 -3.75,-3.75 3.75,3.75 0 0 1 3.75,-3.75 3.75,3.75 0 0 1 3.75,3.75 z"
         id="path3347-5" />
    </g>
  </g>
</svg>
